<?xml version="1.0" encoding="UTF-8" standalone="no"?>
<!-- Created with Inkscape (http://www.inkscape.org/) -->
<svg width="600" height="800" version="1.1" id="svg5" inkscape:version="1.2.1 (9c6d41e410, 2022-07-14)" sodipodi:docname="templateMoreIcons.svg" xmlns:inkscape="http://www.inkscape.org/namespaces/inkscape" xmlns:sodipodi="http://sodipodi.sourceforge.net/DTD/sodipodi-0.dtd" xmlns="http://www.w3.org/2000/svg" xmlns:svg="http://www.w3.org/2000/svg">
  <defs id="defs4" />
  <rect style="fill:#000;stroke-width:4;stroke-dasharray:none;stroke-opacity:1" id="rahmen" width="600" height="800" x="0" y="0" />
  
  <rect id="rect1" style="stroke-width:2;stroke:#FFF" width="270px" height="70px" ry="5" x="310" y="20"/>
  <text x="445" y="80" style="fill:#FFF;font-size:18px;text-anchor:middle;font-family:Verdana">
    <tspan template-id="calendarEventDesc0"> Emma surolan Ende? </tspan>
  </text>
  <line x1="310" x2="580" y1="55" y2="55" stroke="#FFF" stroke-width="1"/>
  <text x="445" y="45" style="fill:#FFF;font-size:18px;text-anchor:middle;font-family:Verdana">
    <tspan template-id="calendarEventDate0"> 21.01.</tspan>
  </text>



  <rect id="rect2" style="stroke-width:2px;stroke:#FFF" width="270px" height="70px" ry="5" x="310" y="100"/>
  <text x="445" y="160" style="fill:#FFF;font-size:18px;text-anchor:middle;font-family:Verdana">
    <tspan template-id="calendarEventDesc1"> Schmidts</tspan>
  </text>
  <line x1="310" x2="580" y1="135" y2="135" stroke="#FFF" stroke-width="1"/>
  <text x="445" y="125" style="fill:#FFF;font-size:18px;text-anchor:middle;font-family:Verdana">
    <tspan template-id="calendarEventDate1"> 21.01. von 11:00 bis 16:00 </tspan>
  </text>
  
  

  <rect id="rect3" style="stroke-width:2px;stroke:#FFF" width="270px" height="70px" ry="5" x="310" y="180"/>
  <text x="445" y="240" style="fill:#FFF;font-size:18px;text-anchor:middle;font-family:Verdana">
    <tspan template-id="calendarEventDesc2"> Lilo Schule </tspan>
  </text>
  <line x1="310" x2="580" y1="215" y2="215" stroke="#FFF" stroke-width="1"/>
  <text x="445" y="205" style="fill:#FFF;font-size:18px;text-anchor:middle;font-family:Verdana">
    <tspan template-id="calendarEventDate2"> 21.01. bis 27.01. </tspan>
  </text>  
  <text x="20" y="250" style="fill:#FFF;font-size:30px;font-family:Verdana">
    <tspan template-id="calendarError"></tspan>
  </text>

<text x="20" y="40" style="fill:#FFF;font-size:15px;font-family:Verdana">
    <tspan template-id="updateTime"> 10:00 </tspan>
  </text>
  <text x="60" y="670" style="fill:#FFF;text-anchor:middle;font-size:20px;font-family:Verdana">
    <tspan template-id="foreTime0"> 10:10 </tspan>
  </text>
  <text x="180" y="670" style="fill:#FFF;text-anchor:middle;font-size:20px;font-family:Verdana">
    <tspan template-id="foreTime1"> 10:10 </tspan>
  </text>
  <text x="300" y="670" style="fill:#FFF;text-anchor:middle;font-size:20px;font-family:Verdana">
    <tspan template-id="foreTime2"> 10:10 </tspan>
  </text>
  <text x="420" y="670" style="fill:#FFF;text-anchor:middle;font-size:20px;font-family:Verdana">
    <tspan template-id="foreTime3"> 10:10 </tspan>
  </text>
  <text x="540" y="670" style="fill:#FFF;text-anchor:middle;font-size:20px;font-family:Verdana">
    <tspan template-id="foreTime4"> 10:10 </tspan>
  </text>
  <text x="60" y="780" style="fill:#FFF;text-anchor:middle;font-size:20px;font-family:Verdana">
    <tspan template-id="foreTemp0"> 7C </tspan>
  </text>
  <text x="180" y="780" style="fill:#FFF;text-anchor:middle;font-size:20px;font-family:Verdana">
    <tspan template-id="foreTemp1"> 7C </tspan>
  </text>
  <text x="300" y="780" style="fill:#FFF;text-anchor:middle;font-size:20px;font-family:Verdana">
    <tspan template-id="foreTemp2"> 7C </tspan>
  </text>
  <text x="420" y="780" style="fill:#FFF;text-anchor:middle;font-size:20px;font-family:Verdana">
    <tspan template-id="foreTemp3"> 7C </tspan>
  </text>
  <text x="540" y="780" style="fill:#FFF;text-anchor:middle;font-size:20px;font-family:Verdana">
    <tspan template-id="foreTemp4"> 7C </tspan>
  </text>
  <rect id="rect113-1" style="fill:#FFF" width="80px" height="80px" x="20" y="680" template-id="foreIcon0" />
  <rect id="rect113-2" style="fill:#FFF" width="80px" height="80px" x="140" y="680" template-id="foreIcon1" />
  <rect id="rect113-3" style="fill:#FFF" width="80px" height="80px" x="260" y="680" template-id="foreIcon2" />
  <rect id="rect113-4" style="fill:#FFF" width="80px" height="80px" x="380" y="680" template-id="foreIcon3" />
  <rect id="rect113-5" style="fill:#FFF" width="80px" height="80px" x="500" y="680" template-id="foreIcon4" />
  <rect id="rect113-6" style="fill:#FFF" width="160px" height="160px" x="220" y="460" template-id="curIcon" />
  <rect id="rect113-7" style="fill:none;stroke:#FFF;stroke-width:2;ry:5" width="560px" height="180px" x="20" y="450" />
  <rect id="rect113-8" style="fill:none;stroke:#FFF;stroke-width:2;ry:5" width="580px" height="350px" x="10" y="440" />
  <text x="115" y="496.17746" style="fill:#FFF;font-size:37.3333px;font-family:Verdana;text-anchor:end">
    <tspan template-id="currentTemp">-13</tspan>
  </text>
  <text x="115" y="555.8479" style="font-size:37.3333px;font-family:Verdana;fill:#FFF;text-anchor:end">
    <tspan template-id="currentFeelTemp">-10</tspan>
  </text>
  <text x="160" y="613.54102" style="font-size:37.3333px;font-family:Verdana;fill:#FFF;text-anchor:end">
    <tspan template-id="currentRain">3mm</tspan>
  </text>
  <text x="446.1142" y="493.04056" style="font-size:37.3333px;font-family:Verdana;fill:#FFF">
    <tspan template-id="currentWindDir">WSW</tspan>
  </text>
  <text x="525" y="554.78583" style="font-size:37.3333px;font-family:Verdana;fill:#FFF;text-anchor:end">
    <tspan template-id="currentWindSpeed">16</tspan>
  </text>
  <text x="550" y="540" style="font-size:25px;font-family:Verdana;fill:#FFF;text-anchor:middle"><tspan>km</tspan></text>
  <line x1="530" x2="570" y1="545" y2="545" stroke="#FFF" stroke-width="1"/>
  <text x="550" y="570" style="font-size:25px;font-family:Verdana;fill:#FFF;text-anchor:middle"><tspan>h</tspan></text>

  <text x="525" y="612" style="font-size:37.3333px;font-family:Verdana;fill:#FFF;text-anchor:end">
    <tspan template-id="currentWindGust">16</tspan>
  </text>
  <text x="550" y="595" style="font-size:25px;font-family:Verdana;fill:#FFF;text-anchor:middle"><tspan>km</tspan></text>
  <line x1="530" x2="570" y1="600" y2="600" stroke="#FFF" stroke-width="1"/>
  <text x="550" y="625" style="font-size:25px;font-family:Verdana;fill:#FFF;text-anchor:middle"><tspan>h</tspan></text>

  <text x="20" y="600" style="fill:#FFF;font-size:30px;font-family:Verdana">
    <tspan template-id="weatherError"></tspan>
  </text>
  <path d="m 120,473.20935 c 0,-1.60257 0.57695,-2.98078 1.69873,-4.10257 1.15385,-1.15385 2.49999,-1.69871 4.10257,-1.69871 1.57052,0 2.94873,0.57692 4.07053,1.69871 1.12178,1.15384 1.69871,2.5 1.69871,4.10257 0,1.60257 -0.57693,2.98077 -1.69871,4.10257 -1.1218,1.15385 -2.50001,1.69872 -4.07053,1.69872 -1.60258,0 -2.98078,-0.57692 -4.10257,-1.69872 -1.12178,-1.1218 -1.69873,-2.5 -1.69873,-4.10257 z m 2.82052,0 c 0,0.83334 0.28846,1.53847 0.8654,2.14744 0.60897,0.60898 1.31409,0.89743 2.14742,0.89743 0.83335,0 1.53848,-0.28845 2.14745,-0.89743 0.60897,-0.60897 0.89744,-1.3141 0.89744,-2.14744 0,-0.83333 -0.28847,-1.53846 -0.89744,-2.14743 -0.60897,-0.60898 -1.3141,-0.89746 -2.14745,-0.89746 -0.83333,0 -1.53845,0.28848 -2.14742,0.89746 -0.57694,0.57692 -0.8654,1.3141 -0.8654,2.14743 z m 12.46797,14.16668 c 0,2.46796 0.67307,4.64744 2.05128,6.57054 0.70514,0.99359 1.69872,1.79487 2.98078,2.40383 1.25001,0.57693 2.69231,0.89744 4.29487,0.89744 4.6795,0 7.62822,-1.79486 8.81411,-5.35257 0.12818,-0.44871 0.0641,-0.89743 -0.1923,-1.3141 -0.25642,-0.41667 -0.60897,-0.64103 -1.05768,-0.73718 -0.44873,-0.12818 -0.89745,-0.0641 -1.28206,0.22435 -0.38462,0.25642 -0.64103,0.60899 -0.73718,1.08977 0,0.032 0,0.064 -0.032,0.16023 l -0.064,0.22438 c -0.35258,0.60896 -0.83333,1.08974 -1.44233,1.4423 -0.99358,0.60897 -2.30769,0.89744 -3.94231,0.89744 -0.99359,0 -1.89103,-0.16027 -2.66026,-0.51282 -1.28205,-0.54488 -2.17948,-1.50641 -2.72435,-2.85258 -0.35257,-0.86537 -0.54487,-1.92307 -0.54487,-3.10897 v -10.32052 c 0,-0.48078 0.032,-0.96155 0.0961,-1.4423 0.12818,-1.21797 0.60897,-2.33978 1.4423,-3.33335 0.9295,-1.1218 2.40386,-1.66668 4.4231,-1.66668 1.66665,0 2.98076,0.28848 3.9423,0.86539 0.64103,0.38462 1.1218,0.86539 1.44231,1.44231 0.032,0.0641 0.032,0.16025 0.0641,0.25641 0.032,0.0961 0.032,0.16025 0.032,0.1923 0.12818,0.44872 0.38461,0.76924 0.73718,0.96155 0.38461,0.22436 0.80127,0.2564 1.28205,0.16025 0.4487,-0.0961 0.80128,-0.35256 1.05769,-0.73718 0.25641,-0.38462 0.32051,-0.80129 0.1923,-1.28204 v -0.032 l -0.25641,-0.7372 c -0.16026,-0.35255 -0.44871,-0.83332 -0.89743,-1.3782 -0.41668,-0.57692 -0.92948,-1.02563 -1.44231,-1.41025 -0.67307,-0.48077 -1.53847,-0.86539 -2.62821,-1.21794 -1.08975,-0.32053 -2.27562,-0.4808 -3.55769,-0.4808 -1.63462,0 -3.04487,0.28847 -4.32693,0.8654 -1.25001,0.5769 -2.24358,1.34613 -2.91667,2.33973 -1.37821,1.89103 -2.08333,4.10257 -2.08333,6.63464 v 10.28845 z" id="path1056" style="fill:#ffffff;fill-opacity:1;stroke:none;stroke-width:3.20513;stroke-opacity:1" />
  <path d="m 120,533.32547 c 0,-1.60257 0.57695,-2.98078 1.69873,-4.10258 1.15385,-1.15385 2.49999,-1.6987 4.10257,-1.6987 1.57052,0 2.94873,0.57692 4.07053,1.6987 1.12178,1.15384 1.69871,2.50001 1.69871,4.10258 0,1.60257 -0.57693,2.98077 -1.69871,4.10257 -1.1218,1.15385 -2.50001,1.69872 -4.07053,1.69872 -1.60258,0 -2.98078,-0.57692 -4.10257,-1.69872 -1.12178,-1.1218 -1.69873,-2.5 -1.69873,-4.10257 z m 2.82052,0 c 0,0.83334 0.28846,1.53847 0.8654,2.14744 0.60897,0.60898 1.31409,0.89743 2.14742,0.89743 0.83335,0 1.53848,-0.28845 2.14745,-0.89743 0.60897,-0.60897 0.89744,-1.3141 0.89744,-2.14744 0,-0.83333 -0.28847,-1.53846 -0.89744,-2.14743 -0.60897,-0.609 -1.3141,-0.89746 -2.14745,-0.89746 -0.83333,0 -1.53845,0.28846 -2.14742,0.89746 -0.57694,0.57692 -0.8654,1.3141 -0.8654,2.14743 z m 12.46797,14.16668 c 0,2.46796 0.67307,4.64744 2.05128,6.57054 0.70514,0.99359 1.69872,1.79487 2.98078,2.40383 1.25001,0.57693 2.69231,0.89744 4.29487,0.89744 4.6795,0 7.62822,-1.79487 8.81411,-5.35257 0.12818,-0.44871 0.0641,-0.89743 -0.1923,-1.3141 -0.25642,-0.41667 -0.60897,-0.64103 -1.05768,-0.73718 -0.44873,-0.12818 -0.89745,-0.0641 -1.28206,0.22435 -0.38462,0.25642 -0.64103,0.60899 -0.73718,1.08977 0,0.032 0,0.0641 -0.032,0.16023 l -0.064,0.22438 c -0.35258,0.60896 -0.83333,1.08974 -1.44233,1.4423 -0.99358,0.60897 -2.30769,0.89744 -3.94231,0.89744 -0.99359,0 -1.89103,-0.16027 -2.66026,-0.51282 -1.28205,-0.54488 -2.17948,-1.50641 -2.72435,-2.85258 -0.35257,-0.86537 -0.54487,-1.92307 -0.54487,-3.10897 v -10.32052 c 0,-0.48078 0.032,-0.96155 0.0961,-1.4423 0.12818,-1.21797 0.60897,-2.33978 1.4423,-3.33335 0.9295,-1.1218 2.40386,-1.66668 4.4231,-1.66668 1.66665,0 2.98076,0.28848 3.9423,0.86539 0.64103,0.38462 1.1218,0.86539 1.44231,1.44231 0.032,0.0641 0.032,0.16025 0.0641,0.25641 0.032,0.0961 0.032,0.16025 0.032,0.1923 0.12818,0.44872 0.38461,0.76924 0.73718,0.96155 0.38461,0.22436 0.80127,0.2564 1.28205,0.16025 0.4487,-0.0961 0.80128,-0.35256 1.05769,-0.73718 0.25641,-0.38462 0.32051,-0.80129 0.1923,-1.28204 v -0.032 l -0.25641,-0.7372 c -0.16026,-0.35257 -0.44871,-0.83332 -0.89743,-1.3782 -0.41668,-0.57694 -0.92948,-1.02563 -1.44231,-1.41025 -0.67307,-0.48077 -1.53847,-0.86539 -2.62821,-1.21794 -1.08975,-0.32053 -2.27562,-0.4808 -3.55769,-0.4808 -1.63462,0 -3.04487,0.28847 -4.32693,0.8654 -1.25001,0.5769 -2.24358,1.34613 -2.91667,2.33973 -1.37821,1.89103 -2.08333,4.10257 -2.08333,6.63464 v 10.28845 z" id="path1056-7" style="fill:#ffffff;fill-opacity:1;stroke:none;stroke-width:3.20513;stroke-opacity:1" />
  <path d="m 165,604.61767 c 0,2.732 0.68302,5.28582 2.07871,7.63178 1.39569,2.34595 3.26651,4.24646 5.64216,5.64215 2.37564,1.39571 4.92948,2.1084 7.69117,2.1084 2.76169,0 5.3452,-0.71269 7.75054,-2.1084 2.40535,-1.39569 4.30587,-3.2962 5.70157,-5.64215 1.39569,-2.37565 2.1084,-4.89978 2.1084,-7.63178 0,-1.78174 -0.50484,-3.89012 -1.54419,-6.35487 -1.03934,-2.46473 -2.28656,-4.75129 -3.74163,-6.83 -1.30662,-1.69264 -2.85078,-3.56345 -4.63253,-5.58276 -1.78175,-2.01929 -4.89978,-5.13735 -5.61245,-5.85004 l -3.80106,3.83075 c -1.84113,1.78172 -3.62287,3.83072 -5.31551,6.17669 -1.69265,2.34594 -3.17743,4.87007 -4.42465,7.57238 C 165.59391,600.28211 165,602.62805 165,604.61767 Z" id="path2182" style="fill:#ffffff;fill-opacity:1;stroke-width:2.96956" />
  <path d="m 400,480.03553 c 0,-3.62346 0.90585,-6.98048 2.69982,-10.05329 1.79396,-3.07284 4.22734,-5.50622 7.30018,-7.30017 3.07284,-1.79398 6.41207,-2.68207 10.01776,-2.68207 2.69982,0 5.29308,0.53287 7.76199,1.58082 2.46892,1.04794 4.5826,2.48667 6.37656,4.26287 1.79396,1.7762 3.21493,3.90764 4.26287,6.39433 1.04795,2.48667 1.58082,5.06216 1.58082,7.79751 0,2.69982 -0.53287,5.29307 -1.58082,7.762 -1.04794,2.46891 -2.48667,4.60034 -4.26287,6.37654 -1.7762,1.7762 -3.90764,3.19717 -6.37656,4.24511 -2.46891,1.04795 -5.0444,1.58082 -7.76199,1.58082 -2.71758,0 -5.3286,-0.53287 -7.79751,-1.58082 -2.46892,-1.04794 -4.60036,-2.48667 -6.39432,-4.26287 -1.79397,-1.7762 -3.19717,-3.90764 -4.26288,-6.35878 C 400.49733,485.34635 400,482.75311 400,480.03553 Z m 4.40498,0 c 0,4.2096 1.52753,7.86854 4.60035,10.97691 3.07283,3.07283 6.7318,4.60034 11.01243,4.60034 2.8064,0 5.4174,-0.69271 7.79751,-2.09591 2.38011,-1.4032 4.2984,-3.28596 5.7016,-5.68383 1.4032,-2.39788 2.11368,-4.99111 2.11368,-7.79751 0,-2.8064 -0.71048,-5.41742 -2.11368,-7.81528 -1.4032,-2.39787 -3.30374,-4.29841 -5.7016,-5.7016 -2.39787,-1.4032 -4.99111,-2.09592 -7.79751,-2.09592 -2.8064,0 -5.41741,0.69272 -7.79751,2.09592 -2.3801,1.40319 -4.29841,3.30373 -5.71936,5.7016 -1.42096,2.39786 -2.09591,5.00888 -2.09591,7.81528 z m 8.68562,10.39076 6.66073,-23.28596 c 0.0182,-0.17764 0.10654,-0.26644 0.26643,-0.26644 0.15982,0 0.24868,0.0887 0.26644,0.26644 l 6.64296,23.28596 c 0.0711,0.19538 0.0533,0.33747 -0.0355,0.44404 -0.0887,0.10654 -0.23091,0.10654 -0.42629,0 l -6.16342,-2.30906 c -0.17764,-0.0711 -0.35522,-0.0711 -0.51507,0 l -6.21671,2.30906 c -0.17764,0.10654 -0.30197,0.10654 -0.37302,0 -0.0711,-0.10655 -0.142,-0.26642 -0.10655,-0.44404 z" id="path2923" style="fill:#ffffff;fill-opacity:1;stroke-width:1.77619" />
  <path d="m 400,543.479 c 0,0.40335 0.15127,0.75629 0.47058,1.042 0.26891,0.31933 0.62186,0.4706 1.05884,0.4706 h 24.68907 c 0.4874,0 0.89075,0.168 1.22689,0.5042 0.33613,0.33613 0.5042,0.75631 0.5042,1.24369 0,0.4874 -0.168,0.89076 -0.5042,1.21009 -0.33614,0.31933 -0.73949,0.4874 -1.24371,0.4874 -0.48738,0 -0.90756,-0.168 -1.22689,-0.4874 -0.26889,-0.30253 -0.60503,-0.43698 -1.0084,-0.43698 -0.42016,0 -0.77311,0.15127 -1.07562,0.43698 -0.30252,0.28571 -0.45378,0.63866 -0.45378,1.0252 0,0.42018 0.15127,0.77311 0.47058,1.05884 0.94119,0.92436 2.05042,1.39494 3.29411,1.39494 1.31093,0 2.43698,-0.45378 3.37817,-1.36134 0.94116,-0.90755 1.39494,-2 1.39494,-3.31091 0,-1.31093 -0.47058,-2.42018 -1.41176,-3.36135 -0.94117,-0.94118 -2.06722,-1.41176 -3.36135,-1.41176 h -24.67225 c -0.42018,0 -0.77311,0.15127 -1.07564,0.43696 C 400.15125,542.70589 400,543.05882 400,543.479 Z m 0,-5.51262 c 0,0.38657 0.15127,0.72269 0.47058,1.02522 0.28573,0.30251 0.63866,0.43696 1.05884,0.43696 h 33.68067 c 1.31091,0 2.43696,-0.45378 3.37815,-1.37814 0.94118,-0.90757 1.41176,-2.0168 1.41176,-3.31093 0,-1.29411 -0.47058,-2.42016 -1.41176,-3.34453 C 437.64705,530.47058 436.521,530 435.21009,530 c -1.29413,0 -2.38656,0.45378 -3.27731,1.34455 -0.30253,0.26889 -0.45378,0.63865 -0.45378,1.12603 0,0.43698 0.15127,0.78993 0.43696,1.05884 0.28571,0.26891 0.63866,0.40336 1.05882,0.40336 0.40337,0 0.75631,-0.13454 1.05884,-0.40336 0.31933,-0.35295 0.70587,-0.52102 1.17647,-0.52102 0.48738,0 0.89075,0.168 1.22689,0.5042 0.33613,0.33615 0.5042,0.73951 0.5042,1.22689 0,0.4874 -0.168,0.89076 -0.5042,1.21009 -0.33614,0.31933 -0.73951,0.4874 -1.22689,0.4874 h -33.68067 c -0.42018,0 -0.77311,0.15127 -1.07564,0.43697 C 400.15125,537.19327 400,537.54622 400,537.96638 Z" id="path3664" style="fill:#ffffff;fill-opacity:1;stroke-width:1.68067" />
  <path d="m 191.6273,524.94 c -0.16,0 -0.32,-0.04 -0.46,-0.12 -3.84,-1.98 -7.16,-2.82 -11.14,-2.82 -3.96,0 -7.72,0.94 -11.14,2.82 -0.48,0.26 -1.08,0.08 -1.36,-0.4 a 1.012,1.012 0 0 1 0.4,-1.36 c 3.72,-2.02 7.8,-3.06 12.1,-3.06 4.26,0 7.98,0.94 12.06,3.04 0.5,0.26 0.68,0.86 0.42,1.34 a 0.98,0.98 0 0 1 -0.88,0.56 z m -28.62,10.5 a 0.998,0.998 0 0 1 -0.82,-1.58 c 1.98,-2.8 4.5,-5 7.5,-6.54 6.28,-3.24 14.32,-3.26 20.62,-0.02 3,1.54 5.52,3.72 7.5,6.5 a 1,1 0 0 1 -0.24,1.4 c -0.46,0.32 -1.08,0.22 -1.4,-0.24 a 18.776,18.776 0 0 0 -6.78,-5.88 c -5.74,-2.94 -13.08,-2.94 -18.8,0.0198 -2.72,1.4 -5,3.4 -6.8,5.92 -0.16,0.28 -0.46,0.42 -0.78,0.42 z m 12.5,24.14 a 0.94,0.94 0 0 1 -0.7,-0.3 c -1.74,-1.74 -2.68,-2.86 -4.02,-5.28 -1.38,-2.46 -2.1,-5.46 -2.1,-8.68 0,-5.94 5.08,-10.78 11.32,-10.78 6.24,0 11.32,4.84 11.32,10.78 0,0.56 -0.44,1 -1,1 -0.56,0 -1,-0.44 -1,-1 0,-4.84 -4.18,-8.78 -9.32,-8.78 -5.14,0 -9.32,3.94 -9.32,8.78 0,2.88 0.64,5.54 1.86,7.7 1.28,2.3 2.16,3.28 3.7,4.84 0.38,0.4 0.38,1.02 0,1.42 -0.22,0.2 -0.48,0.3 -0.74,0.3 z m 14.34,-3.7 c -2.38,0 -4.48,-0.6 -6.2,-1.78 -2.98,-2.02 -4.76,-5.3 -4.76,-8.78 0,-0.56 0.44,-1 1,-1 0.56,0 1,0.44 1,1 0,2.82 1.44,5.48 3.88,7.12 1.42,0.96 3.08,1.42 5.08,1.42 0.48,0 1.28,-0.06 2.08,-0.2 0.54,-0.10018 1.06,0.26 1.16,0.82 0.1,0.54 -0.26,1.06 -0.82,1.16 -1.14,0.22 -2.14,0.24 -2.42,0.24 z m -4.02,4.12 c -0.08,0 -0.17982,-0.0198 -0.26,-0.04 -3.18,-0.88 -5.26,-2.06 -7.44,-4.2 a 14.594,14.594 0 0 1 -4.34,-10.44 c 0,-3.24 2.76,-5.88 6.16,-5.88 3.4,0 6.16,2.64 6.16,5.88 0,2.14 1.86,3.88 4.16,3.88 2.3,0 4.16,-1.74 4.16,-3.88 0,-7.54 -6.5,-13.66 -14.5,-13.66 -5.68,0 -10.88,3.16 -13.22,8.06 -0.78,1.62 -1.18,3.52 -1.18,5.6 0,1.56 0.14018,4.02 1.34,7.22 0.2,0.52 -0.06,1.1 -0.58,1.28 -0.52,0.2 -1.1,-0.08 -1.28,-0.58 a 22.28,22.28 0 0 1 -1.46,-7.92 c 0,-2.4 0.46,-4.58 1.36,-6.48 2.66,-5.58 8.56,-9.2 15.02,-9.2 9.1,0 16.5,7.02 16.5,15.66 0,3.24 -2.76,5.88 -6.16,5.88 -3.4,0 -6.16,-2.64 -6.16,-5.88 0,-2.14 -1.86,-3.88 -4.16,-3.88 -2.3,0 -4.16,1.74 -4.16,3.88 0,3.42 1.32,6.62 3.74,9.02 1.9,1.88 3.72,2.92 6.54,3.7 0.54,0.14018 0.84,0.7 0.7,1.22 -0.10019,0.46 -0.52,0.76 -0.94,0.76 z" id="path1973" style="fill:#ffffff;fill-opacity:1;stroke-width:2" />
  <path d="m 170,490.80127 c 0,-1.53916 0.36216,-2.96967 1.06836,-4.30965 0.7062,-1.33997 1.70213,-2.44455 2.98777,-3.33182 v -17.96287 c 0,-1.44862 0.48891,-2.67995 1.48483,-3.67588 0.99593,-0.99592 2.22726,-1.52105 3.67588,-1.52105 1.46672,0 2.69805,0.50702 3.69398,1.50295 0.99593,1.01403 1.50294,2.22725 1.50294,3.67587 v 17.96287 c 1.28566,0.88727 2.26348,2.00996 2.96968,3.33182 0.7062,1.32187 1.05023,2.77049 1.05023,4.30965 0,1.66591 -0.41647,3.22319 -1.23132,4.63559 -0.81484,1.4124 -1.93753,2.53507 -3.34993,3.34992 -1.4124,0.81486 -2.95157,1.23133 -4.63558,1.23133 -1.66591,0 -3.20508,-0.41647 -4.61748,-1.23133 -1.4124,-0.81485 -2.53507,-1.93752 -3.36803,-3.34992 C 170.39836,494.00635 170,492.46718 170,490.80127 Z m 3.18696,0 c 0,1.68402 0.59755,3.13264 1.77457,4.32775 1.177,1.19511 2.60751,1.79267 4.27342,1.79267 1.68401,0 3.13263,-0.59756 4.34585,-1.81078 1.21322,-1.21322 1.82889,-2.64373 1.82889,-4.29153 0,-1.12269 -0.28973,-2.17293 -0.86918,-3.13265 -0.57944,-0.95971 -1.37618,-1.70213 -2.39022,-2.22724 l -0.50702,-0.25351 c -0.18109,-0.0724 -0.27162,-0.25351 -0.27162,-0.52513 v -19.48392 c 0,-0.57946 -0.19918,-1.06837 -0.61565,-1.46673 -0.41647,-0.38027 -0.92349,-0.57945 -1.53916,-0.57945 -0.57944,0 -1.08646,0.19918 -1.50295,0.57945 -0.41647,0.38025 -0.61565,0.86916 -0.61565,1.46673 v 19.44771 c 0,0.27161 -0.0905,0.45269 -0.25351,0.52512 l -0.48891,0.25351 c -0.99593,0.52513 -1.77457,1.26755 -2.33589,2.22726 -0.56135,0.95971 -0.83297,1.99183 -0.83297,3.15074 z m 1.4124,0 c 0,1.28564 0.43459,2.39022 1.32188,3.2956 0.88727,0.90538 1.93752,1.35809 3.18696,1.35809 1.24944,0 2.31778,-0.45271 3.24127,-1.35809 0.92351,-0.90538 1.3762,-2.00996 1.3762,-3.27749 0,-1.1408 -0.39838,-2.15483 -1.177,-3.024 -0.77863,-0.86916 -1.73834,-1.39429 -2.86103,-1.53916 v -13.32729 c 0,-0.10873 -0.0544,-0.2354 -0.18109,-0.34406 -0.12673,-0.12672 -0.25351,-0.18109 -0.39837,-0.18109 -0.16291,0 -0.28973,0.0544 -0.38027,0.14491 -0.0905,0.10855 -0.14491,0.21729 -0.14491,0.38026 v 13.29107 c -1.10458,0.16291 -2.04618,0.67 -2.82482,1.53916 -0.77862,0.88729 -1.15889,1.8832 -1.15889,3.04211 z" id="path5076" style="fill:#ffffff;fill-opacity:1;stroke-width:1.81077" />
  <g id="g938" transform="matrix(1.4336918,0,0,1.4336918,397.70609,579.42652)" style="stroke:none;stroke-opacity:1;fill:#ffffff;fill-opacity:1">
    <path d="m 2.1,24.1 c 0,0.2 0.1,0.4 0.2,0.5 0.1,0.1 0.3,0.2 0.5,0.2 h 11.5 c 0.2,0 0.4,0.1 0.6,0.2 0.2,0.2 0.2,0.4 0.2,0.6 0,0.2 -0.1,0.4 -0.3,0.6 -0.2,0.1 -0.3,0.2 -0.6,0.2 -0.2,0 -0.4,-0.1 -0.6,-0.2 0,-0.2 -0.2,-0.2 -0.4,-0.2 -0.2,0 -0.4,0.1 -0.5,0.2 -0.1,0.1 -0.2,0.3 -0.2,0.5 0,0.2 0.1,0.4 0.2,0.5 0.4,0.4 1,0.6 1.5,0.6 0.6,0 1.1,-0.2 1.6,-0.6 0.4,-0.4 0.6,-0.9 0.6,-1.5 0,-0.6 -0.2,-1.1 -0.7,-1.6 -0.4,-0.4 -1,-0.7 -1.6,-0.7 H 2.8 c -0.2,0 -0.4,0.1 -0.5,0.2 -0.1,0.1 -0.2,0.3 -0.2,0.5 z m 0,-2.6 c 0,0.2 0.1,0.3 0.2,0.5 0.1,0.1 0.3,0.2 0.5,0.2 h 15.6 c 0.6,0 1.1,-0.2 1.6,-0.6 0.4,-0.4 0.7,-0.9 0.7,-1.5 0,-0.6 -0.2,-1.1 -0.7,-1.6 -0.4,-0.4 -1,-0.6 -1.6,-0.6 -0.6,0 -1.1,0.2 -1.5,0.6 -0.1,0.1 -0.2,0.3 -0.2,0.5 0,0.2 0.1,0.4 0.2,0.5 0.1,0.1 0.3,0.2 0.5,0.2 0.2,0 0.4,-0.1 0.5,-0.2 0.1,-0.2 0.3,-0.2 0.5,-0.2 0.2,0 0.4,0.1 0.6,0.2 0.2,0.2 0.2,0.3 0.2,0.6 0,0.3 -0.1,0.4 -0.2,0.6 -0.2,0.1 -0.3,0.2 -0.6,0.2 H 2.8 c -0.2,0 -0.4,0.1 -0.5,0.2 -0.1,0.1 -0.2,0.2 -0.2,0.4 z" id="path924" style="stroke:none;stroke-opacity:1;fill:#ffffff;fill-opacity:1" />
    <path d="m 2.3,5.9 c 0,0.2 0.1,0.3 0.2,0.4 0.1,0.1 0.2,0.2 0.4,0.2 h 9.3 c 0.2,0 0.3,0.1 0.5,0.2 0.1,0.1 0.2,0.3 0.2,0.5 0,0.2 -0.1,0.3 -0.2,0.5 C 12.6,7.8 12.4,7.9 12.2,7.9 12,7.9 11.9,7.8 11.7,7.7 11.6,7.6 11.5,7.5 11.3,7.5 c -0.2,0 -0.3,0.1 -0.4,0.2 -0.1,0.1 -0.2,0.2 -0.2,0.4 0,0.2 0.1,0.3 0.2,0.4 C 11.3,8.8 11.7,9 12.1,9 12.6,9 13,8.8 13.4,8.5 13.8,8.1 14,7.7 14,7.2 14,6.7 13.8,6.3 13.5,5.9 13.1,5.5 12.7,5.4 12.2,5.4 H 2.9 C 2.7,5.4 2.6,5.5 2.5,5.6 2.4,5.7 2.3,5.8 2.3,5.9 Z m 0,-2 c 0,0.1 0.1,0.3 0.2,0.4 0.1,0.1 0.2,0.2 0.4,0.2 h 12.7 c 0.5,0 0.9,-0.2 1.3,-0.5 0.4,-0.3 0.5,-0.8 0.5,-1.3 0,-0.5 -0.2,-0.9 -0.5,-1.3 -0.4,-0.3 -0.8,-0.5 -1.3,-0.5 -0.5,0 -0.9,0.2 -1.2,0.5 -0.1,0.1 -0.2,0.2 -0.2,0.4 0,0.2 0.1,0.3 0.2,0.4 0.1,0.1 0.2,0.2 0.4,0.2 0.2,0 0.3,-0.1 0.4,-0.2 0.1,-0.1 0.2,-0.2 0.4,-0.2 0.2,0 0.3,0.1 0.5,0.2 0.1,0.1 0.2,0.3 0.2,0.5 0,0.2 -0.1,0.3 -0.2,0.5 C 16,3.3 15.8,3.4 15.6,3.4 H 2.9 C 2.7,3.4 2.6,3.5 2.5,3.6 2.4,3.6 2.3,3.7 2.3,3.9 Z" id="path926" style="stroke:none;stroke-opacity:1;fill:#ffffff;fill-opacity:1" />
    <path d="m 14,14 c 0,0.2 0.1,0.3 0.2,0.4 0.1,0.1 0.2,0.2 0.4,0.2 h 9.7 c 0.2,0 0.3,0.1 0.5,0.2 0.1,0.1 0.2,0.3 0.2,0.5 0,0.2 -0.1,0.3 -0.2,0.5 -0.1,0.1 -0.3,0.2 -0.5,0.2 -0.2,0 -0.4,-0.1 -0.5,-0.2 -0.1,-0.1 -0.2,-0.2 -0.4,-0.2 -0.2,0 -0.3,0.1 -0.4,0.2 -0.1,0.1 -0.2,0.3 -0.2,0.4 0,0.2 0.1,0.3 0.2,0.4 0.4,0.4 0.8,0.5 1.3,0.5 0.5,0 1,-0.2 1.3,-0.5 0.4,-0.4 0.5,-0.8 0.5,-1.3 0,-0.5 -0.2,-0.9 -0.6,-1.3 -0.4,-0.4 -0.8,-0.6 -1.3,-0.6 h -9.7 c -0.2,0 -0.3,0.1 -0.4,0.2 0,0.1 -0.1,0.3 -0.1,0.4 z m 0,-2.1 c 0,0.2 0.1,0.3 0.2,0.4 0.1,0.1 0.3,0.2 0.4,0.2 h 13.2 c 0.5,0 1,-0.2 1.3,-0.5 0.4,-0.4 0.6,-0.8 0.6,-1.3 0,-0.5 -0.2,-0.9 -0.6,-1.3 C 28.7,9 28.3,8.9 27.8,8.9 c -0.5,0 -0.9,0.2 -1.3,0.5 -0.1,0.1 -0.2,0.3 -0.2,0.4 0,0.2 0.1,0.3 0.2,0.4 0.1,0.1 0.3,0.2 0.4,0.2 0.2,0 0.3,-0.1 0.4,-0.2 0.1,-0.1 0.3,-0.2 0.5,-0.2 0.2,0 0.3,0.1 0.5,0.2 0.1,0.1 0.2,0.3 0.2,0.5 0,0.2 -0.1,0.3 -0.2,0.5 -0.1,0.1 -0.3,0.2 -0.5,0.2 H 14.6 c -0.2,0 -0.3,0.1 -0.4,0.2 -0.1,0 -0.2,0.1 -0.2,0.3 z" id="path928" style="stroke:none;stroke-opacity:1;fill:#ffffff;fill-opacity:1" />
  </g>
</svg>