<?xml version="1.0" encoding="utf-8"?>
<!-- Generator: Adobe Illustrator 27.3.1, SVG Export Plug-In . SVG Version: 6.00 Build 0)  -->
<svg version="1.1" id="Layer_1" xmlns="http://www.w3.org/2000/svg" xmlns:xlink="http://www.w3.org/1999/xlink" x="0px" y="0px"
	 viewBox="0 0 30 30" style="enable-background:new 0 0 30 30;" xml:space="preserve">
<path d="M2.1,24.1c0,0.2,0.1,0.4,0.2,0.5c0.1,0.1,0.3,0.2,0.5,0.2h11.5c0.2,0,0.4,0.1,0.6,0.2c0.2,0.2,0.2,0.4,0.2,0.6
	S15,26,14.8,26.2c-0.2,0.1-0.3,0.2-0.6,0.2c-0.2,0-0.4-0.1-0.6-0.2C13.6,26,13.4,26,13.2,26c-0.2,0-0.4,0.1-0.5,0.2
	c-0.1,0.1-0.2,0.3-0.2,0.5c0,0.2,0.1,0.4,0.2,0.5c0.4,0.4,1,0.6,1.5,0.6c0.6,0,1.1-0.2,1.6-0.6c0.4-0.4,0.6-0.9,0.6-1.5
	s-0.2-1.1-0.7-1.6c-0.4-0.4-1-0.7-1.6-0.7H2.8c-0.2,0-0.4,0.1-0.5,0.2C2.2,23.7,2.1,23.9,2.1,24.1z M2.1,21.5c0,0.2,0.1,0.3,0.2,0.5
	c0.1,0.1,0.3,0.2,0.5,0.2h15.6c0.6,0,1.1-0.2,1.6-0.6c0.4-0.4,0.7-0.9,0.7-1.5s-0.2-1.1-0.7-1.6c-0.4-0.4-1-0.6-1.6-0.6
	c-0.6,0-1.1,0.2-1.5,0.6c-0.1,0.1-0.2,0.3-0.2,0.5c0,0.2,0.1,0.4,0.2,0.5c0.1,0.1,0.3,0.2,0.5,0.2c0.2,0,0.4-0.1,0.5-0.2
	c0.1-0.2,0.3-0.2,0.5-0.2c0.2,0,0.4,0.1,0.6,0.2c0.2,0.2,0.2,0.3,0.2,0.6s-0.1,0.4-0.2,0.6c-0.2,0.1-0.3,0.2-0.6,0.2H2.8
	c-0.2,0-0.4,0.1-0.5,0.2C2.2,21.2,2.1,21.3,2.1,21.5z"/>
<path d="M2.3,5.9c0,0.2,0.1,0.3,0.2,0.4c0.1,0.1,0.2,0.2,0.4,0.2h9.3c0.2,0,0.3,0.1,0.5,0.2c0.1,0.1,0.2,0.3,0.2,0.5
	c0,0.2-0.1,0.3-0.2,0.5c-0.1,0.1-0.3,0.2-0.5,0.2c-0.2,0-0.3-0.1-0.5-0.2c-0.1-0.1-0.2-0.2-0.4-0.2c-0.2,0-0.3,0.1-0.4,0.2
	c-0.1,0.1-0.2,0.2-0.2,0.4c0,0.2,0.1,0.3,0.2,0.4c0.4,0.3,0.8,0.5,1.2,0.5c0.5,0,0.9-0.2,1.3-0.5C13.8,8.1,14,7.7,14,7.2
	s-0.2-0.9-0.5-1.3c-0.4-0.4-0.8-0.5-1.3-0.5H2.9c-0.2,0-0.3,0.1-0.4,0.2C2.4,5.7,2.3,5.8,2.3,5.9z M2.3,3.9c0,0.1,0.1,0.3,0.2,0.4
	c0.1,0.1,0.2,0.2,0.4,0.2h12.7c0.5,0,0.9-0.2,1.3-0.5c0.4-0.3,0.5-0.8,0.5-1.3c0-0.5-0.2-0.9-0.5-1.3c-0.4-0.3-0.8-0.5-1.3-0.5
	c-0.5,0-0.9,0.2-1.2,0.5c-0.1,0.1-0.2,0.2-0.2,0.4c0,0.2,0.1,0.3,0.2,0.4c0.1,0.1,0.2,0.2,0.4,0.2c0.2,0,0.3-0.1,0.4-0.2
	C15.3,2.1,15.4,2,15.6,2c0.2,0,0.3,0.1,0.5,0.2c0.1,0.1,0.2,0.3,0.2,0.5c0,0.2-0.1,0.3-0.2,0.5c-0.1,0.1-0.3,0.2-0.5,0.2H2.9
	c-0.2,0-0.3,0.1-0.4,0.2C2.4,3.6,2.3,3.7,2.3,3.9z"/>
<path d="M14,14c0,0.2,0.1,0.3,0.2,0.4c0.1,0.1,0.2,0.2,0.4,0.2h9.7c0.2,0,0.3,0.1,0.5,0.2c0.1,0.1,0.2,0.3,0.2,0.5
	c0,0.2-0.1,0.3-0.2,0.5c-0.1,0.1-0.3,0.2-0.5,0.2c-0.2,0-0.4-0.1-0.5-0.2c-0.1-0.1-0.2-0.2-0.4-0.2c-0.2,0-0.3,0.1-0.4,0.2
	c-0.1,0.1-0.2,0.3-0.2,0.4c0,0.2,0.1,0.3,0.2,0.4c0.4,0.4,0.8,0.5,1.3,0.5c0.5,0,1-0.2,1.3-0.5c0.4-0.4,0.5-0.8,0.5-1.3
	c0-0.5-0.2-0.9-0.6-1.3c-0.4-0.4-0.8-0.6-1.3-0.6h-9.7c-0.2,0-0.3,0.1-0.4,0.2C14.1,13.7,14,13.9,14,14z M14,11.9
	c0,0.2,0.1,0.3,0.2,0.4c0.1,0.1,0.3,0.2,0.4,0.2h13.2c0.5,0,1-0.2,1.3-0.5c0.4-0.4,0.6-0.8,0.6-1.3c0-0.5-0.2-0.9-0.6-1.3
	s-0.8-0.5-1.3-0.5c-0.5,0-0.9,0.2-1.3,0.5c-0.1,0.1-0.2,0.3-0.2,0.4c0,0.2,0.1,0.3,0.2,0.4c0.1,0.1,0.3,0.2,0.4,0.2
	c0.2,0,0.3-0.1,0.4-0.2c0.1-0.1,0.3-0.2,0.5-0.2c0.2,0,0.3,0.1,0.5,0.2c0.1,0.1,0.2,0.3,0.2,0.5c0,0.2-0.1,0.3-0.2,0.5
	c-0.1,0.1-0.3,0.2-0.5,0.2H14.6c-0.2,0-0.3,0.1-0.4,0.2C14.1,11.6,14,11.7,14,11.9z"/>
</svg>
